<?xml version="1.0" encoding="UTF-8"?>
<!DOCTYPE svg PUBLIC "-//W3C//DTD SVG 1.1//EN" "http://www.w3.org/Graphics/SVG/1.1/DTD/svg11.dtd">
<svg xmlns="http://www.w3.org/2000/svg" version="1.1" width="144px" height="144px" style="shape-rendering:geometricPrecision; text-rendering:geometricPrecision; image-rendering:optimizeQuality; fill-rule:evenodd; clip-rule:evenodd" xmlns:xlink="http://www.w3.org/1999/xlink">
<g><path style="opacity:0.818" fill="#00adef" d="M 63.5,-0.5 C 71.1667,-0.5 78.8333,-0.5 86.5,-0.5C 104.788,2.67988 120.455,11.0132 133.5,24.5C 136.858,29.8975 140.192,35.2308 143.5,40.5C 143.5,42.1667 143.5,43.8333 143.5,45.5C 137.824,45.6661 132.157,45.4994 126.5,45C 118.173,34.2272 108.507,25.8939 97.5,20C 65.3787,10.2957 40.3787,18.7957 22.5,45.5C 16.6171,46.687 10.9505,48.5203 5.5,51C 3.74117,51.7975 2.0745,51.6309 0.5,50.5C 11.4327,20.8886 32.4327,3.88857 63.5,-0.5 Z"/></g>
<g><path style="opacity:0.804" fill="#00adee" d="M 57.5,48.5 C 49.6414,47.2484 41.6414,47.2484 33.5,48.5C 36.2028,43.6214 39.8694,39.4547 44.5,36C 71.2923,22.3834 94.4589,25.8834 114,46.5C 117.587,51.3289 119.753,56.6622 120.5,62.5C 114.491,62.6662 108.491,62.4995 102.5,62C 91.1364,45.7527 76.1364,41.2527 57.5,48.5 Z"/></g>
<g><path style="opacity:0.896" fill="#0094cb" d="M 57.5,48.5 C 56.6304,50.2737 55.297,51.607 53.5,52.5C 46.0215,51.3305 39.3549,52.9972 33.5,57.5C 31.2965,56.5279 29.9632,54.8612 29.5,52.5C 30.4023,50.6593 31.7356,49.326 33.5,48.5C 41.6414,47.2484 49.6414,47.2484 57.5,48.5 Z"/></g>
<g><path style="opacity:0.794" fill="#000000" d="M 29.5,52.5 C 29.9632,54.8612 31.2965,56.5279 33.5,57.5C 39.3549,52.9972 46.0215,51.3305 53.5,52.5C 55.5273,52.3379 57.5273,52.5045 59.5,53C 61.4797,55.1644 63.813,56.6644 66.5,57.5C 66.9907,60.0103 67.9907,62.3436 69.5,64.5C 70.498,73.1411 70.8314,81.8078 70.5,90.5C 65.3069,91.5768 61.4735,89.9101 59,85.5C 58.6667,85.8333 58.3333,86.1667 58,86.5C 54.8297,80.7331 52.3297,74.7331 50.5,68.5C 49.1667,67.1667 47.8333,67.1667 46.5,68.5C 44.5735,69.9229 43.2402,71.7562 42.5,74C 44.5689,84.1274 49.9022,92.1274 58.5,98C 62.1342,100.409 66.1342,101.575 70.5,101.5C 70.5,107.5 70.5,113.5 70.5,119.5C 52.3378,117.692 38.8378,109.026 30,93.5C 27.6822,86.6902 26.1822,79.6902 25.5,72.5C 22.7202,66.4942 19.5536,66.1609 16,71.5C 16.7319,95.18 27.5653,112.513 48.5,123.5C 52.9003,124.593 57.2337,125.926 61.5,127.5C 64.4281,128.484 67.4281,128.817 70.5,128.5C 70.5,133.5 70.5,138.5 70.5,143.5C 64.8333,143.5 59.1667,143.5 53.5,143.5C 25.2001,135.337 7.20005,117.004 -0.5,88.5C -0.5,80.1667 -0.5,71.8333 -0.5,63.5C 1.30556,61.9106 2.63889,59.9106 3.5,57.5C 5.21988,56.0198 7.05321,54.6865 9,53.5C 13.178,53.1277 17.178,52.1277 21,50.5C 23.595,52.1458 26.4284,52.8125 29.5,52.5 Z"/></g>
<g><path style="opacity:0.825" fill="#00adef" d="M 143.5,100.5 C 143.5,101.833 143.5,103.167 143.5,104.5C 133.121,124.869 116.787,137.869 94.5,143.5C 87.8333,143.5 81.1667,143.5 74.5,143.5C 74.5,138.5 74.5,133.5 74.5,128.5C 84.2706,128.577 93.6039,126.577 102.5,122.5C 106.365,118.741 110.698,115.741 115.5,113.5C 118.128,109.208 121.128,105.208 124.5,101.5C 130.798,100.504 137.132,100.17 143.5,100.5 Z"/></g>
</svg>
